name rise30.8019peak61.5557fall86.2505.mot
datacolumns 19
datarows 33
range 5.29664600000000 5.34998600000000
endheader
time	ground_force1_vx	ground_force1_vy	ground_force1_vz	ground_force1_px	ground_force1_py	ground_force1_pz	ground_force2_vx	ground_force2_vy	ground_force2_vz	ground_force2_px	ground_force2_py	ground_force2_pz	ground_torque1_x	ground_torque1_y	ground_torque1_z	ground_torque2_x	ground_torque2_y	ground_torque2_z	
5.29664600000000	-9.60848700000000	693.50127599999996	26.68248700000000	0.11342600000000	0.00000000000000	0.10823200000000	0.00000000000000	0.00000000000000	0.00000000000000	0.00000000000000	0.00000000000000	0.00000000000000	0.00000000000000	10.34086700000000	0.00000000000000	0.00000000000000	0.00000000000000	0.00000000000000	
5.29831900000000	-10.12248300000000	694.65779699999996	26.69717300000000	0.11242300000000	0.00000000000000	0.10822300000000	0.00000000000000	0.00000000000000	0.00000000000000	0.00000000000000	0.00000000000000	0.00000000000000	0.00000000000000	10.43038100000000	0.00000000000000	0.00000000000000	0.00000000000000	0.00000000000000	
5.29998700000000	-10.63961000000000	695.80281400000001	26.71533100000000	0.11142600000000	0.00000000000000	0.10821400000000	0.00000000000000	0.00000000000000	0.00000000000000	0.00000000000000	0.00000000000000	0.00000000000000	0.00000000000000	10.52147100000000	0.00000000000000	0.00000000000000	0.00000000000000	0.00000000000000	
5.30165100000000	-11.15968400000000	696.93587400000001	26.73710400000000	0.11043600000000	0.00000000000000	0.10820700000000	0.00000000000000	0.00000000000000	0.00000000000000	0.00000000000000	0.00000000000000	0.00000000000000	0.00000000000000	10.61412200000000	0.00000000000000	0.00000000000000	0.00000000000000	0.00000000000000	
5.30331300000000	-11.68251700000000	698.05665499999998	26.76263800000000	0.10945200000000	0.00000000000000	0.10819900000000	0.00000000000000	0.00000000000000	0.00000000000000	0.00000000000000	0.00000000000000	0.00000000000000	0.00000000000000	10.70831700000000	0.00000000000000	0.00000000000000	0.00000000000000	0.00000000000000	
5.30498100000000	-12.20792300000000	699.16496900000004	26.79207500000000	0.10847500000000	0.00000000000000	0.10819300000000	0.00000000000000	0.00000000000000	0.00000000000000	0.00000000000000	0.00000000000000	0.00000000000000	0.00000000000000	10.80403800000000	0.00000000000000	0.00000000000000	0.00000000000000	0.00000000000000	
5.30665400000000	-12.73571500000000	700.26075200000002	26.82555800000000	0.10750500000000	0.00000000000000	0.10818700000000	0.00000000000000	0.00000000000000	0.00000000000000	0.00000000000000	0.00000000000000	0.00000000000000	0.00000000000000	10.90126200000000	0.00000000000000	0.00000000000000	0.00000000000000	0.00000000000000	
5.30831200000000	-13.26570700000000	701.34406899999999	26.86322800000000	0.10654200000000	0.00000000000000	0.10818200000000	0.00000000000000	0.00000000000000	0.00000000000000	0.00000000000000	0.00000000000000	0.00000000000000	0.00000000000000	10.99996600000000	0.00000000000000	0.00000000000000	0.00000000000000	0.00000000000000	
5.30998000000000	-13.79771600000000	702.41510700000003	26.90521900000000	0.10558500000000	0.00000000000000	0.10817800000000	0.00000000000000	0.00000000000000	0.00000000000000	0.00000000000000	0.00000000000000	0.00000000000000	0.00000000000000	11.10012300000000	0.00000000000000	0.00000000000000	0.00000000000000	0.00000000000000	
5.31164600000000	-14.33155900000000	703.47416799999996	26.95166400000000	0.10463400000000	0.00000000000000	0.10817400000000	0.00000000000000	0.00000000000000	0.00000000000000	0.00000000000000	0.00000000000000	0.00000000000000	0.00000000000000	11.20170200000000	0.00000000000000	0.00000000000000	0.00000000000000	0.00000000000000	
5.31331400000000	-14.86705700000000	704.52166999999997	27.00269100000000	0.10369000000000	0.00000000000000	0.10817200000000	0.00000000000000	0.00000000000000	0.00000000000000	0.00000000000000	0.00000000000000	0.00000000000000	0.00000000000000	11.30467300000000	0.00000000000000	0.00000000000000	0.00000000000000	0.00000000000000	
5.31497900000000	-15.40403100000000	705.55813499999999	27.05842100000000	0.10275200000000	0.00000000000000	0.10817000000000	0.00000000000000	0.00000000000000	0.00000000000000	0.00000000000000	0.00000000000000	0.00000000000000	0.00000000000000	11.40899700000000	0.00000000000000	0.00000000000000	0.00000000000000	0.00000000000000	
5.31664900000000	-15.94230600000000	706.58419100000003	27.11896900000000	0.10182000000000	0.00000000000000	0.10816900000000	0.00000000000000	0.00000000000000	0.00000000000000	0.00000000000000	0.00000000000000	0.00000000000000	0.00000000000000	11.51463700000000	0.00000000000000	0.00000000000000	0.00000000000000	0.00000000000000	
5.31833000000000	-16.48170800000000	707.60055799999998	27.18444600000000	0.10089400000000	0.00000000000000	0.10816900000000	0.00000000000000	0.00000000000000	0.00000000000000	0.00000000000000	0.00000000000000	0.00000000000000	0.00000000000000	11.62155000000000	0.00000000000000	0.00000000000000	0.00000000000000	0.00000000000000	
5.31998200000000	-17.02206800000000	708.60804800000005	27.25495300000000	0.09997300000000	0.00000000000000	0.10816900000000	0.00000000000000	0.00000000000000	0.00000000000000	0.00000000000000	0.00000000000000	0.00000000000000	0.00000000000000	11.72968800000000	0.00000000000000	0.00000000000000	0.00000000000000	0.00000000000000	
5.32165400000000	-17.56321600000000	709.60755300000005	27.33058500000000	0.09905700000000	0.00000000000000	0.10817100000000	0.00000000000000	0.00000000000000	0.00000000000000	0.00000000000000	0.00000000000000	0.00000000000000	0.00000000000000	11.83900100000000	0.00000000000000	0.00000000000000	0.00000000000000	0.00000000000000	
5.32331400000000	-18.10498500000000	710.60004200000003	27.41142900000000	0.09814600000000	0.00000000000000	0.10817300000000	0.00000000000000	0.00000000000000	0.00000000000000	0.00000000000000	0.00000000000000	0.00000000000000	0.00000000000000	11.94943600000000	0.00000000000000	0.00000000000000	0.00000000000000	0.00000000000000	
5.32498100000000	-18.64721000000000	711.58654999999999	27.49756400000000	0.09723900000000	0.00000000000000	0.10817700000000	0.00000000000000	0.00000000000000	0.00000000000000	0.00000000000000	0.00000000000000	0.00000000000000	0.00000000000000	12.06093500000000	0.00000000000000	0.00000000000000	0.00000000000000	0.00000000000000	
5.32664800000000	-19.18972700000000	712.56817100000001	27.58906100000000	0.09633600000000	0.00000000000000	0.10818100000000	0.00000000000000	0.00000000000000	0.00000000000000	0.00000000000000	0.00000000000000	0.00000000000000	0.00000000000000	12.17343500000000	0.00000000000000	0.00000000000000	0.00000000000000	0.00000000000000	
5.32831300000000	-19.73237100000000	713.54605200000003	27.68598300000000	0.09543700000000	0.00000000000000	0.10818700000000	0.00000000000000	0.00000000000000	0.00000000000000	0.00000000000000	0.00000000000000	0.00000000000000	0.00000000000000	12.28687000000000	0.00000000000000	0.00000000000000	0.00000000000000	0.00000000000000	
5.32998000000000	-20.27497900000000	714.52138000000002	27.78838500000000	0.09454100000000	0.00000000000000	0.10819300000000	0.00000000000000	0.00000000000000	0.00000000000000	0.00000000000000	0.00000000000000	0.00000000000000	0.00000000000000	12.40117000000000	0.00000000000000	0.00000000000000	0.00000000000000	0.00000000000000	
5.33164600000000	-20.81738800000000	715.49537899999996	27.89631200000000	0.09364900000000	0.00000000000000	0.10820100000000	0.00000000000000	0.00000000000000	0.00000000000000	0.00000000000000	0.00000000000000	0.00000000000000	0.00000000000000	12.51625900000000	0.00000000000000	0.00000000000000	0.00000000000000	0.00000000000000	
5.33331400000000	-21.35943200000000	716.46929599999999	28.00980300000000	0.09275900000000	0.00000000000000	0.10820900000000	0.00000000000000	0.00000000000000	0.00000000000000	0.00000000000000	0.00000000000000	0.00000000000000	0.00000000000000	12.63206000000000	0.00000000000000	0.00000000000000	0.00000000000000	0.00000000000000	
5.33498000000000	-21.90094400000000	717.44439799999998	28.12888600000000	0.09187100000000	0.00000000000000	0.10821800000000	0.00000000000000	0.00000000000000	0.00000000000000	0.00000000000000	0.00000000000000	0.00000000000000	0.00000000000000	12.74848700000000	0.00000000000000	0.00000000000000	0.00000000000000	0.00000000000000	
5.33664600000000	-22.44175500000000	718.42195800000002	28.25358400000000	0.09098500000000	0.00000000000000	0.10822900000000	0.00000000000000	0.00000000000000	0.00000000000000	0.00000000000000	0.00000000000000	0.00000000000000	0.00000000000000	12.86545500000000	0.00000000000000	0.00000000000000	0.00000000000000	0.00000000000000	
5.33831400000000	-22.98169400000000	719.40324899999996	28.38390800000000	0.09010100000000	0.00000000000000	0.10824000000000	0.00000000000000	0.00000000000000	0.00000000000000	0.00000000000000	0.00000000000000	0.00000000000000	0.00000000000000	12.98287100000000	0.00000000000000	0.00000000000000	0.00000000000000	0.00000000000000	
5.33998600000000	-23.52058500000000	720.38953400000003	28.51986500000000	0.08921800000000	0.00000000000000	0.10825300000000	0.00000000000000	0.00000000000000	0.00000000000000	0.00000000000000	0.00000000000000	0.00000000000000	0.00000000000000	13.10063900000000	0.00000000000000	0.00000000000000	0.00000000000000	0.00000000000000	
5.34164700000000	-24.05824800000000	721.38206000000002	28.66145100000000	0.08833700000000	0.00000000000000	0.10826600000000	0.00000000000000	0.00000000000000	0.00000000000000	0.00000000000000	0.00000000000000	0.00000000000000	0.00000000000000	13.21865800000000	0.00000000000000	0.00000000000000	0.00000000000000	0.00000000000000	
5.34331200000000	-24.59449800000000	722.38204499999995	28.80865600000000	0.08745600000000	0.00000000000000	0.10828100000000	0.00000000000000	0.00000000000000	0.00000000000000	0.00000000000000	0.00000000000000	0.00000000000000	0.00000000000000	13.33682600000000	0.00000000000000	0.00000000000000	0.00000000000000	0.00000000000000	
5.34498700000000	-25.12914400000000	723.39067499999999	28.96146300000000	0.08657700000000	0.00000000000000	0.10829600000000	0.00000000000000	0.00000000000000	0.00000000000000	0.00000000000000	0.00000000000000	0.00000000000000	0.00000000000000	13.45503200000000	0.00000000000000	0.00000000000000	0.00000000000000	0.00000000000000	
5.34665000000000	-25.66199100000000	724.40909299999998	29.11984600000000	0.08569700000000	0.00000000000000	0.10831300000000	0.00000000000000	0.00000000000000	0.00000000000000	0.00000000000000	0.00000000000000	0.00000000000000	0.00000000000000	13.57316600000000	0.00000000000000	0.00000000000000	0.00000000000000	0.00000000000000	
5.34831300000000	-26.19283500000000	725.43838800000003	29.28377300000000	0.08481800000000	0.00000000000000	0.10833000000000	0.00000000000000	0.00000000000000	0.00000000000000	0.00000000000000	0.00000000000000	0.00000000000000	0.00000000000000	13.69111000000000	0.00000000000000	0.00000000000000	0.00000000000000	0.00000000000000	
5.34998600000000	-26.72146600000000	726.47959700000001	29.45320600000000	0.08393900000000	0.00000000000000	0.10834900000000	0.00000000000000	0.00000000000000	0.00000000000000	0.00000000000000	0.00000000000000	0.00000000000000	0.00000000000000	13.80874700000000	0.00000000000000	0.00000000000000	0.00000000000000	0.00000000000000	
